<?xml version="1.0" encoding="utf-8"?>
<!-- Generator: Adobe Illustrator 27.4.1, SVG Export Plug-In . SVG Version: 6.00 Build 0)  -->
<svg version="1.1" id="Layer_1" xmlns="http://www.w3.org/2000/svg" xmlns:xlink="http://www.w3.org/1999/xlink" x="0px" y="0px"
	 viewBox="0 0 888 342.1" style="enable-background:new 0 0 888 342.1;" xml:space="preserve">
<style type="text/css">
	.st0{fill:#3F3D56;}
	.st1{fill:#6C63FF;}
	.st2{fill:#2F2E41;}
</style>
<path class="st0" d="M560.2,337.7l-141.5-4c0,0,10.6-63.7-23.5-81.4c-23.3-12.1-44-68.4-38.1-106.7c0.1-0.5,0.2-1,0.2-1.5
	c3-17.2,11.5-30.4,27.8-34.1c52.7-11.7,90.2-2.6,90.2-2.6s8.7,0.1,21.6,2.5c0.5,0.1,0.9,0.2,1.4,0.3c36.5,7.2,103.9,32.6,106.9,123
	C609.2,357.4,560.2,337.7,560.2,337.7L560.2,337.7z"/>
<path class="st1" d="M497,109.9c-0.2,6.5-1.7,12.9-4.4,19c-5.6,12.7-15.7,22.4-28.5,27.3c-38.5,14.7-83.3,0.1-106-15.7
	c-0.1,0.5-1.9,10-2,10.5c10,6.9,59.2,13.5,68.6,13.5c14.2,0,27.8-2.4,39.9-7c13.2-5.1,23.6-15,29.3-28c2.7-6.2,4.2-12.8,4.5-19.3
	C497.9,110.1,497.4,110,497,109.9L497,109.9L497,109.9z"/>
<path class="st0" d="M507.4,118.2l-22.5-56.7c0,0,27.1-46.4,5.8-51.5c-21.3-5.2-43.2,22.5-43.2,22.5s-40.6-14.2-56.1-2.6
	c0,0-25.8-36.1-41.2-29c-15.5,7.1,5.5,58.2,5.5,58.2s-31.9,46.9-7.4,73.9C372.7,160.1,464.9,182,507.4,118.2L507.4,118.2
	L507.4,118.2z"/>
<path class="st0" d="M555.8,303.8c7.7,3.4,15.7,6.9,24.1,6.6s17.2-5.7,18.5-14c0.7-4.3-0.7-8.9,1-12.9c2.2-5.4,9.3-7.5,14.9-5.6
	c5.5,1.9,9.6,6.6,12.5,11.7c5.5,9.5,7.6,21.9,1.8,31.1c-5.1,8-14.7,11.6-23.6,14.7c-11.9,4.1-25.2,8.2-36.8,3.1
	c-11.6-5.1-17.9-19.8-13.6-31.8"/>
<path class="st1" d="M428.7,92.7c0,0-13.9-5.6-22.9,1.4l10.4,16L428.7,92.7L428.7,92.7z"/>
<path class="st0" d="M355.9,165.6l25.7,136.7c0,0-38.9,39.5,11.1,38.9c50-0.7,35.4-26.4,35.4-26.4l-16-118.6"/>
<path class="st2" d="M391.4,342.1c-13.5,0-21.7-3.1-24.3-9.2c-4.8-11.2,10.8-28.2,13.4-31l-17.3-102.2l2-0.3l17.4,103.2l-0.4,0.4
	c-0.2,0.2-17.9,18.5-13.4,29.1c2.4,5.5,10.3,8.2,23.7,8c18.6-0.3,30.7-4.2,34.8-11.3c3.7-6.4-0.2-13.5-0.2-13.6l-0.1-0.2l0-0.2
	L416,232.3l2-0.3l11.1,82.4c0.7,1.2,4.1,8.5,0.2,15.4c-4.5,7.9-16.8,12-36.5,12.3C392.3,342.1,391.8,342.1,391.4,342.1L391.4,342.1z
	"/>
<path class="st0" d="M421.1,165.6l25.7,136.7c0,0-38.9,39.5,11.1,38.9c50-0.7,35.4-26.4,35.4-26.4l-16-118.6"/>
<path class="st2" d="M456.6,342.1c-13.5,0-21.7-3.1-24.3-9.2c-4.8-11.1,10.7-28.1,13.4-31l-10.3-55l2-0.4l10.5,56l-0.4,0.4
	c-0.2,0.2-17.9,18.5-13.4,29.1c2.4,5.5,10.3,8.2,23.7,8c18.7-0.3,30.7-4.2,34.8-11.3c3.7-6.4-0.2-13.5-0.3-13.5l-0.1-0.2l-16-118.8
	l2-0.3l15.9,118.5c0.7,1.2,4.1,8.5,0.2,15.4c-4.5,7.9-16.8,12-36.5,12.3C457.5,342.1,457,342.1,456.6,342.1L456.6,342.1z"/>
</svg>
